<?xml version="1.0" standalone="no"?>
<!DOCTYPE svg PUBLIC "-//W3C//DTD SVG 20010904//EN"
 "http://www.w3.org/TR/2001/REC-SVG-20010904/DTD/svg10.dtd">
<svg version="1.0" xmlns="http://www.w3.org/2000/svg"
 width="222.000000pt" height="223.000000pt" viewBox="0 0 222.000000 223.000000"
 preserveAspectRatio="xMidYMid meet">

<g transform="translate(0.000000,223.000000) scale(0.100000,-0.100000)"
fill="#0dd" stroke="none">
<path d="M1080 2206 c-14 -38 -67 -224 -79 -281 -15 -69 -31 -198 -31 -246 l0
-39 146 0 147 0 -7 85 c-8 112 -37 254 -78 390 -31 103 -35 110 -61 113 -21 3
-29 -2 -37 -22z"/>
<path d="M970 1475 c0 -75 -4 -93 -30 -145 l-30 -60 205 0 205 0 -30 60 c-26
52 -30 70 -30 145 l0 85 -145 0 -145 0 0 -85z"/>
<path d="M890 780 l0 -410 225 0 225 0 0 410 0 410 -225 0 -225 0 0 -410z"/>
<path d="M903 276 c18 -45 18 -85 2 -110 -22 -33 -16 -117 10 -146 17 -19 31
-20 202 -20 l183 0 20 33 c24 39 26 91 4 132 -14 28 -13 69 3 111 4 12 -28 14
-212 14 -184 0 -216 -2 -212 -14z"/>
</g>
</svg>
