<?xml version="1.0" standalone="no"?>
<!DOCTYPE svg PUBLIC "-//W3C//DTD SVG 20010904//EN"
 "http://www.w3.org/TR/2001/REC-SVG-20010904/DTD/svg10.dtd">
<svg version="1.0" xmlns="http://www.w3.org/2000/svg"
 width="223.000000pt" height="222.000000pt" viewBox="0 0 223.000000 222.000000"
 preserveAspectRatio="xMidYMid meet">

<g transform="translate(0.000000,222.000000) scale(0.100000,-0.100000)"
fill="#0dd" stroke="none">
<path d="M50 1323 c-48 -18 -50 -26 -50 -220 l0 -183 33 -20 c39 -24 91 -26
132 -4 28 14 69 13 111 -3 12 -4 14 28 14 212 0 184 -2 216 -14 212 -44 -17
-86 -18 -108 -3 -22 15 -87 20 -118 9z"/>
<path d="M370 1105 l0 -225 410 0 410 0 0 225 0 225 -410 0 -410 0 0 -225z"/>
<path d="M1270 1105 l0 -205 60 30 c52 26 70 30 145 30 l85 0 0 145 0 145 -85
0 c-75 0 -93 4 -145 30 l-60 30 0 -205z"/>
<path d="M1640 1104 l0 -147 85 7 c112 8 255 37 390 78 108 32 110 34 110 63
0 28 -4 30 -74 52 -177 56 -362 92 -468 93 l-43 0 0 -146z"/>
</g>
</svg>
